<svg width="32" height="32" viewBox="0 0 32 32" fill="none" xmlns="http://www.w3.org/2000/svg">
<path fill-rule="evenodd" clip-rule="evenodd" d="M0.347571 12.6692C1.53605 14.0359 3.60955 14.6866 5.39994 13.3986C5.11923 14.5628 5.0284 15.7693 5.13436 16.9674C5.46907 20.9421 7.98755 24.5721 11.8743 26.2028C12.6232 26.517 13.4086 26.7217 14.2398 26.868L14.3804 26.8918C14.8725 26.9721 15.2618 27.0274 15.6474 27.0507C15.7339 27.0524 15.8208 27.0527 15.9078 27.0524C16.0411 27.0489 16.1291 27.0486 16.1291 27.0486C16.1518 27.048 16.3734 27.0446 16.4019 27.0429C16.6977 27.0248 16.989 27.0192 17.253 26.9917C17.8855 24.9902 19.4059 23.424 21.3158 22.878C21.6062 22.795 21.9326 22.7574 22.2231 22.6874C23.7062 22.3302 24.9419 21.8826 26.1384 21.2087C26.3164 21.1084 26.4937 21.0031 26.6707 20.8924C27.0121 20.6787 27.353 20.4448 27.6979 20.1873L27.7399 20.1568C27.8666 20.068 27.9987 19.9989 28.1338 19.9485C28.1349 19.9481 28.1361 19.9477 28.1372 19.9473C28.1958 19.9256 28.2549 19.9073 28.3144 19.8926C28.3172 19.8919 28.3201 19.8913 28.323 19.8906C28.3356 19.8875 28.3484 19.8846 28.3611 19.8819C28.3633 19.8814 28.3655 19.881 28.3677 19.8805C28.3794 19.878 28.3911 19.8756 28.4029 19.8734C28.4093 19.8721 28.4159 19.871 28.4223 19.8699C28.4316 19.8682 28.4409 19.8666 28.4502 19.8651C28.457 19.8641 28.4639 19.8631 28.4707 19.8621C28.4781 19.861 28.4855 19.8599 28.4929 19.8589C28.5008 19.8579 28.5087 19.8569 28.5166 19.856C28.5257 19.8549 28.5349 19.8539 28.544 19.853C28.5466 19.8528 28.5492 19.8526 28.5517 19.8523C28.565 19.8511 28.5782 19.8498 28.5915 19.8489C28.5938 19.8487 28.5962 19.8486 28.5986 19.8485C28.6108 19.8477 28.6231 19.847 28.6353 19.8464C28.6396 19.8463 28.6439 19.8461 28.6482 19.846C28.6588 19.8456 28.6696 19.8452 28.6802 19.845C28.6858 19.8449 28.6915 19.845 28.6971 19.8449C28.7073 19.8449 28.7175 19.8449 28.7276 19.845C28.7329 19.8451 28.7383 19.8451 28.7437 19.8453C28.7524 19.8454 28.7612 19.8457 28.7699 19.846C28.7785 19.8464 28.7873 19.8468 28.7959 19.8473C28.8025 19.8476 28.8091 19.848 28.8157 19.8484C28.8228 19.8489 28.8301 19.8494 28.8372 19.8499C28.8463 19.8506 28.8554 19.8513 28.8644 19.8522C28.8704 19.8527 28.8764 19.8534 28.8823 19.854C28.8918 19.855 28.9014 19.8561 28.9109 19.8573C28.9164 19.8579 28.9219 19.8587 28.9274 19.8594C28.9372 19.8607 28.9471 19.8621 28.9569 19.8635C28.9627 19.8644 28.9686 19.8654 28.9745 19.8663C28.9827 19.8676 28.9911 19.869 28.9993 19.8704C29.0077 19.8719 29.0161 19.8734 29.0244 19.875C29.0314 19.8763 29.0385 19.8777 29.0455 19.8791C29.0524 19.8805 29.0594 19.8821 29.0664 19.8836C29.0744 19.8853 29.0824 19.8871 29.0904 19.8889C29.0993 19.891 29.1083 19.8931 29.1172 19.8953C29.1227 19.8967 29.1283 19.8981 29.1337 19.8995C29.1418 19.9016 29.15 19.9037 29.158 19.9059C29.1656 19.908 29.1733 19.9101 29.1808 19.9122C29.1897 19.9148 29.1987 19.9174 29.2076 19.9201C29.212 19.9214 29.2166 19.9228 29.221 19.9242C29.232 19.9276 29.2429 19.9311 29.2538 19.9348C29.2577 19.936 29.2615 19.9374 29.2654 19.9387C29.2757 19.9422 29.286 19.9458 29.2963 19.9494C29.3015 19.9513 29.3068 19.9533 29.312 19.9553C29.3218 19.9589 29.3316 19.9625 29.3413 19.9662C29.3458 19.968 29.3504 19.9699 29.355 19.9717C29.365 19.9757 29.375 19.9798 29.385 19.9839C29.3899 19.986 29.3949 19.9881 29.3998 19.9902C29.4092 19.9942 29.4187 19.9983 29.428 20.0024C29.4326 20.0045 29.4372 20.0066 29.4417 20.0087C29.4524 20.0136 29.4632 20.0186 29.4739 20.0237C29.477 20.0252 29.4802 20.0268 29.4834 20.0283C29.4938 20.0334 29.5042 20.0384 29.5146 20.0437C29.5207 20.0468 29.5269 20.0501 29.533 20.0533C29.5395 20.0566 29.5461 20.06 29.5526 20.0634C29.5623 20.0686 29.5721 20.074 29.5817 20.0794C29.5862 20.0819 29.5907 20.0843 29.5951 20.0868C29.6034 20.0915 29.6118 20.0964 29.6202 20.1012C29.627 20.1052 29.6338 20.1093 29.6406 20.1133C29.6457 20.1164 29.6507 20.1196 29.6558 20.1226C29.6658 20.1287 29.6758 20.1349 29.6857 20.1412C29.6882 20.1428 29.6907 20.1444 29.6932 20.146C29.7036 20.1527 29.7141 20.1595 29.7244 20.1664C29.7311 20.1708 29.7378 20.1754 29.7444 20.1799C29.7502 20.1839 29.7561 20.1878 29.7618 20.1918C29.7695 20.1972 29.7771 20.2027 29.7848 20.2082C29.7918 20.2132 29.7987 20.2183 29.8057 20.2234C29.8124 20.2283 29.8191 20.2333 29.8257 20.2383C29.8312 20.2425 29.8367 20.2467 29.8422 20.2509C29.8518 20.2582 29.8613 20.2658 29.8708 20.2733C29.8746 20.2764 29.8785 20.2793 29.8823 20.2823C29.8886 20.2874 29.8948 20.2927 29.9011 20.2979C29.9341 20.3252 29.9668 20.3535 29.9987 20.3831C30.0181 20.4011 30.0373 20.4197 30.0564 20.4386C30.0622 20.4444 30.0682 20.4501 30.074 20.456C30.0791 20.4611 30.084 20.4664 30.089 20.4716C30.1084 20.4916 30.1276 20.512 30.1464 20.5329C30.157 20.5446 30.1675 20.5565 30.178 20.5686C30.1789 20.5697 30.1799 20.5708 30.1809 20.572C30.1863 20.5782 30.1915 20.5845 30.1968 20.5908C30.2627 20.6686 30.3252 20.7518 30.3834 20.8406C30.3916 20.8531 30.3997 20.8657 30.4078 20.8784C30.4213 20.8977 30.4344 20.9171 30.4471 20.9366C30.4556 20.9495 30.4637 20.9626 30.4718 20.9756C30.4762 20.9826 30.4807 20.9896 30.4849 20.9966C30.5049 21.0294 30.5237 21.0626 30.5416 21.096C30.5456 21.1035 30.5497 21.111 30.5536 21.1185C30.5603 21.1313 30.5667 21.1443 30.5731 21.1572C30.5768 21.1647 30.5806 21.1721 30.5842 21.1796C30.59 21.1916 30.5955 21.2037 30.601 21.2157C30.605 21.2245 30.6092 21.2333 30.613 21.2421C30.6138 21.2438 30.6144 21.2455 30.6152 21.2472C30.7135 21.5767 30.7284 22.1211 30.5743 22.6044C28.4643 27.2475 24.1856 30.7585 18.9167 31.729C17.1392 32.0607 15.3627 32.0816 13.6491 31.8261C13.6045 31.8195 13.5599 31.8126 13.5153 31.8057C13.5107 31.8049 13.5059 31.8043 13.5013 31.8036L13.5011 31.8035C6.48379 30.7 0.833311 24.9887 0.0836173 17.6246L0.0639621 17.4188C-0.0812549 15.7875 0.0239388 14.1917 0.347571 12.6692ZM26.7147 25.0312C26.4801 24.3659 25.7504 24.0168 25.0851 24.2513C24.4197 24.486 24.0704 25.2155 24.305 25.8808C24.5396 26.5461 25.1976 27.2591 26.041 26.9618C26.8843 26.6644 26.9493 25.6965 26.7147 25.0312Z" fill="url(#paint0_linear_91_121)"/>
<path fill-rule="evenodd" clip-rule="evenodd" d="M12.0451 0.498094C13.5162 0.121001 15.0065 -0.0372731 16.4756 0.00733498L16.4766 0.00969394C24.4723 0.237646 31.2094 6.41944 31.936 14.5813L31.9489 14.7341C32.0745 16.3122 31.9659 17.856 31.6524 19.3309C30.4639 17.9642 28.3904 17.3134 26.6 18.6015C26.872 17.4736 26.9657 16.3062 26.8749 15.1451L26.8659 15.0365C26.5225 10.959 23.8807 7.24043 19.8215 5.67478L19.6882 5.62425C19.3466 5.49747 19.0563 5.39448 18.7789 5.31023C17.9962 5.09339 17.2116 5.03666 16.3686 4.99682L16.2261 4.99082C15.7277 4.97361 15.3345 4.96818 14.9491 4.99394C14.8807 5.00128 14.8122 5.00946 14.7437 5.01813C14.1094 7.01495 12.591 8.57694 10.6842 9.12209C10.3938 9.2051 10.0673 9.24269 9.77689 9.31264C8.2938 9.66989 7.05804 10.1175 5.86158 10.7914C5.68352 10.8916 5.50628 10.997 5.32928 11.1077C4.98787 11.3214 4.64699 11.5552 4.30205 11.8128L4.26003 11.8432C4.13332 11.9321 4.00122 12.0012 3.86619 12.0516C3.86507 12.052 3.86385 12.0524 3.86273 12.0528C3.8042 12.0745 3.74508 12.0928 3.6856 12.1075C3.68277 12.1082 3.67983 12.1088 3.67699 12.1095C3.66431 12.1125 3.65155 12.1155 3.63883 12.1182C3.63667 12.1187 3.63444 12.1191 3.63228 12.1196C3.62058 12.1221 3.60882 12.1245 3.59709 12.1267C3.59063 12.1279 3.58408 12.1291 3.5776 12.1302C3.56835 12.1319 3.55903 12.1335 3.54977 12.1349C3.54295 12.136 3.53605 12.137 3.52923 12.138C3.52186 12.1391 3.51443 12.1402 3.50705 12.1412C3.49919 12.1422 3.49125 12.1431 3.48339 12.1441C3.47427 12.1451 3.46508 12.1462 3.45595 12.1471C3.4534 12.1473 3.45078 12.1475 3.44823 12.1478C3.435 12.149 3.42172 12.1502 3.40848 12.1512C3.40615 12.1513 3.40373 12.1514 3.4014 12.1516C3.38917 12.1524 3.37688 12.1531 3.36465 12.1536C3.36038 12.1538 3.35605 12.154 3.35179 12.1541C3.34112 12.1545 3.33039 12.1549 3.31972 12.1551C3.31411 12.1552 3.30843 12.1551 3.30282 12.1551C3.29268 12.1552 3.28247 12.1552 3.27233 12.1551C3.267 12.155 3.26161 12.1549 3.25629 12.1548C3.24757 12.1546 3.23879 12.1544 3.23007 12.1541C3.22142 12.1537 3.2127 12.1533 3.20404 12.1528C3.19747 12.1525 3.19082 12.1521 3.18425 12.1517C3.17711 12.1512 3.1699 12.1507 3.16276 12.1501C3.1537 12.1494 3.14457 12.1488 3.13552 12.1479C3.12959 12.1473 3.1236 12.1467 3.11767 12.146C3.10814 12.145 3.09854 12.144 3.08901 12.1428C3.08356 12.1421 3.07804 12.1414 3.07259 12.1407C3.06276 12.1394 3.05288 12.138 3.04307 12.1366C3.03722 12.1357 3.03131 12.1347 3.02547 12.1338C3.0172 12.1325 3.00888 12.1311 3.00063 12.1297C2.99228 12.1282 2.98386 12.1267 2.97552 12.1251C2.96852 12.1238 2.96146 12.1224 2.95446 12.121C2.94752 12.1196 2.94053 12.118 2.93359 12.1165C2.92559 12.1148 2.91752 12.113 2.90954 12.1112C2.90061 12.1091 2.89162 12.107 2.88271 12.1048C2.87723 12.1034 2.87169 12.102 2.86621 12.1006C2.85813 12.0985 2.85 12.0964 2.84194 12.0942C2.83436 12.0921 2.8267 12.09 2.81913 12.0879C2.81023 12.0853 2.80128 12.0827 2.7924 12.08C2.78792 12.0787 2.78338 12.0773 2.77891 12.0759C2.76799 12.0725 2.75703 12.0689 2.74615 12.0653C2.7423 12.0641 2.73841 12.0627 2.73456 12.0614C2.72428 12.0579 2.71393 12.0543 2.70368 12.0506C2.69843 12.0488 2.69316 12.0468 2.68792 12.0448C2.67819 12.0412 2.66838 12.0376 2.65869 12.0339C2.65412 12.0321 2.64952 12.0302 2.64497 12.0284C2.63496 12.0244 2.62492 12.0203 2.61495 12.0162C2.61003 12.0141 2.60506 12.012 2.60016 12.0099C2.59075 12.0059 2.58129 12.0018 2.57192 11.9976C2.56736 11.9956 2.56278 11.9935 2.55824 11.9914C2.5475 11.9865 2.53676 11.9815 2.52608 11.9764C2.52292 11.9749 2.51971 11.9733 2.51655 11.9718C2.50616 11.9667 2.4957 11.9616 2.48537 11.9564C2.47922 11.9533 2.47307 11.95 2.46694 11.9468C2.46044 11.9434 2.45382 11.9401 2.44734 11.9367C2.43761 11.9315 2.4279 11.9261 2.41822 11.9207C2.4138 11.9182 2.40929 11.9158 2.40488 11.9133C2.39651 11.9086 2.38812 11.9037 2.37979 11.8989C2.37298 11.8949 2.36613 11.8908 2.35936 11.8868C2.35429 11.8837 2.34923 11.8805 2.34418 11.8774C2.3342 11.8713 2.32417 11.8652 2.31426 11.8589C2.31177 11.8573 2.30921 11.8557 2.30672 11.8541C2.29631 11.8474 2.28587 11.8406 2.27554 11.8337C2.26886 11.8293 2.26217 11.8247 2.25553 11.8202C2.24975 11.8162 2.24387 11.8123 2.23812 11.8082C2.23045 11.8029 2.22281 11.7974 2.21519 11.7919C2.2082 11.7869 2.2012 11.7818 2.19425 11.7767C2.18758 11.7718 2.18087 11.7668 2.17424 11.7618C2.16875 11.7576 2.16323 11.7534 2.15777 11.7492C2.14819 11.7419 2.13867 11.7343 2.12918 11.7267C2.12539 11.7237 2.12147 11.7208 2.1177 11.7177C2.11138 11.7126 2.10513 11.7074 2.09885 11.7022C2.06581 11.6749 2.03318 11.6466 2.00127 11.617C1.9818 11.599 1.96261 11.5804 1.9436 11.5615C1.93774 11.5557 1.93172 11.55 1.92591 11.5441C1.92088 11.539 1.91596 11.5337 1.91095 11.5285C1.89159 11.5085 1.87239 11.4881 1.85354 11.4672C1.84295 11.4555 1.83243 11.4435 1.822 11.4315C1.82102 11.4304 1.82 11.4293 1.81903 11.4281C1.81367 11.4219 1.80842 11.4156 1.80311 11.4093C1.73724 11.3315 1.67477 11.2483 1.61656 11.1595C1.60836 11.147 1.60021 11.1344 1.59217 11.1216C1.5787 11.1024 1.56557 11.083 1.55284 11.0635C1.54439 11.0506 1.53624 11.0375 1.52812 11.0245C1.52375 11.0175 1.51928 11.0105 1.51501 11.0035C1.49506 10.9707 1.47625 10.9375 1.45833 10.9041C1.45431 10.8966 1.45023 10.8891 1.44631 10.8816C1.43962 10.8687 1.43324 10.8558 1.42684 10.8428C1.42315 10.8354 1.41932 10.828 1.41573 10.8205C1.40998 10.8085 1.40444 10.7964 1.39894 10.7844C1.39493 10.7756 1.3908 10.7668 1.38692 10.758C1.38618 10.7563 1.38552 10.7546 1.3848 10.7529C1.28647 10.4234 1.27154 9.87898 1.42562 9.39566C3.39527 5.06154 7.25458 1.71379 12.0451 0.498094ZM7.69497 6.11925C7.46033 5.45396 6.80235 4.74098 5.95896 5.0383C5.11569 5.33573 5.05062 6.30362 5.28524 6.96889C5.51987 7.63414 6.2495 7.9833 6.9149 7.74877C7.5803 7.51413 7.92959 6.78454 7.69497 6.11925Z" fill="url(#paint1_linear_91_121)"/>
<path d="M15.6077 11.593C18.042 11.3763 20.1911 13.1737 20.4078 15.6076C20.6245 18.0416 18.8267 20.1903 16.3923 20.4071C13.9579 20.6238 11.8088 18.8264 11.5921 16.3925C11.3755 13.9585 13.1733 11.8097 15.6077 11.593Z" fill="url(#paint2_linear_91_121)"/>
<defs>
<linearGradient id="paint0_linear_91_121" x1="3.57543" y1="3.15926" x2="28.3633" y2="27.9516" gradientUnits="userSpaceOnUse">
<stop stop-color="#24C8DB"/>
<stop offset="1" stop-color="#23608B"/>
</linearGradient>
<linearGradient id="paint1_linear_91_121" x1="3.57543" y1="3.15926" x2="28.3633" y2="27.9516" gradientUnits="userSpaceOnUse">
<stop stop-color="#24C8DB"/>
<stop offset="1" stop-color="#23608B"/>
</linearGradient>
<linearGradient id="paint2_linear_91_121" x1="3.57543" y1="3.15926" x2="28.3633" y2="27.9516" gradientUnits="userSpaceOnUse">
<stop stop-color="#24C8DB"/>
<stop offset="1" stop-color="#23608B"/>
</linearGradient>
</defs>
</svg>
