<svg width="32" height="32" viewBox="0 0 32 32" fill="none" xmlns="http://www.w3.org/2000/svg">
<g clip-path="url(#clip0_91_117)">
<path d="M15.8334 0.000262139C14.5263 0.00633553 13.2781 0.117809 12.1798 0.312154C8.94434 0.883755 8.35691 2.08016 8.35691 4.28655V7.20051H16.0027V8.17183H8.35691H5.4875C3.26542 8.17183 1.31969 9.50743 0.711098 12.0482C0.00908948 14.9605 -0.0220485 16.7778 0.711098 19.8188C1.25459 22.0823 2.55252 23.6951 4.77461 23.6951H7.40341V20.2019C7.40341 17.6783 9.58691 15.4523 12.1798 15.4523H19.8167C21.9426 15.4523 23.6396 13.7019 23.6396 11.567V4.28655C23.6396 2.21449 21.8916 0.657972 19.8167 0.312154C18.5033 0.093516 17.1405 -0.00581125 15.8334 0.000262139ZM11.6986 2.34391C12.4884 2.34391 13.1333 2.99939 13.1333 3.80534C13.1333 4.60845 12.4884 5.25787 11.6986 5.25787C10.906 5.25787 10.2639 4.60845 10.2639 3.80534C10.2639 2.99939 10.906 2.34391 11.6986 2.34391Z" fill="url(#paint0_linear_91_117)"/>
<path d="M24.5931 8.17188V11.567C24.5931 14.1993 22.3615 16.4147 19.8167 16.4147H12.1798C10.088 16.4147 8.35693 18.2051 8.35693 20.3V27.5805C8.35693 29.6525 10.1587 30.8713 12.1798 31.4657C14.6001 32.1774 16.9209 32.306 19.8167 31.4657C21.7416 30.9084 23.6396 29.7868 23.6396 27.5805V24.6665H16.0027V23.6952H23.6396H27.4625C29.6846 23.6952 30.5127 22.1452 31.2854 19.8188C32.0837 17.4238 32.0497 15.1206 31.2854 12.0482C30.7363 9.83615 29.6875 8.17188 27.4625 8.17188H24.5931ZM20.2979 26.6091C21.0905 26.6091 21.7326 27.2586 21.7326 28.0617C21.7326 28.8676 21.0905 29.5231 20.2979 29.5231C19.5082 29.5231 18.8632 28.8676 18.8632 28.0617C18.8632 27.2586 19.5082 26.6091 20.2979 26.6091Z" fill="url(#paint1_linear_91_117)"/>
</g>
<defs>
<linearGradient id="paint0_linear_91_117" x1="0.172852" y1="2.16776e-08" x2="17.8032" y2="15.0235" gradientUnits="userSpaceOnUse">
<stop stop-color="#5A9FD4"/>
<stop offset="1" stop-color="#306998"/>
</linearGradient>
<linearGradient id="paint1_linear_91_117" x1="20.1142" y1="27.8167" x2="13.7891" y2="18.9533" gradientUnits="userSpaceOnUse">
<stop stop-color="#FFD43B"/>
<stop offset="1" stop-color="#FFE873"/>
</linearGradient>
<clipPath id="clip0_91_117">
<rect width="32" height="32" fill="white"/>
</clipPath>
</defs>
</svg>
